<svg width="20" height="21" viewBox="0 0 20 21" fill="none" xmlns="http://www.w3.org/2000/svg">
<path d="M9.99996 7.00155C9.57786 7.00155 9.15988 7.08469 8.76991 7.24622C8.37993 7.40776 8.02559 7.64452 7.72712 7.94299C7.42864 8.24147 7.19188 8.59581 7.03035 8.98578C6.86881 9.37576 6.78568 9.79373 6.78568 10.2158C6.78568 10.6379 6.86881 11.0559 7.03035 11.4459C7.19188 11.8359 7.42864 12.1902 7.72712 12.4887C8.02559 12.7872 8.37993 13.0239 8.76991 13.1854C9.15988 13.347 9.57786 13.4301 9.99996 13.4301C10.8524 13.4301 11.67 13.0915 12.2728 12.4887C12.8756 11.8859 13.2142 11.0683 13.2142 10.2158C13.2142 9.36336 12.8756 8.54579 12.2728 7.94299C11.67 7.3402 10.8524 7.00155 9.99996 7.00155ZM7.8571 10.2158C7.8571 9.93443 7.91253 9.65578 8.02022 9.3958C8.12791 9.13582 8.28575 8.89959 8.48473 8.70061C8.68371 8.50163 8.91994 8.34378 9.17992 8.2361C9.43991 8.12841 9.71856 8.07298 9.99996 8.07298C10.2814 8.07298 10.56 8.12841 10.82 8.2361C11.08 8.34378 11.3162 8.50163 11.5152 8.70061C11.7142 8.89959 11.872 9.13582 11.9797 9.3958C12.0874 9.65578 12.1428 9.93443 12.1428 10.2158C12.1428 10.7842 11.9171 11.3292 11.5152 11.7311C11.1133 12.1329 10.5683 12.3587 9.99996 12.3587C9.43164 12.3587 8.8866 12.1329 8.48473 11.7311C8.08287 11.3292 7.8571 10.7842 7.8571 10.2158ZM15.5071 16.2123L14.2728 15.6701C14.0971 15.5938 13.9061 15.5596 13.7148 15.5703C13.5236 15.5809 13.3375 15.6362 13.1714 15.7316C12.8378 15.9244 12.625 16.2651 12.5828 16.6487L12.4342 17.9916C12.4196 18.1266 12.3634 18.2538 12.2735 18.3556C12.1836 18.4574 12.0643 18.5289 11.9321 18.5601C10.6612 18.8622 9.33725 18.8622 8.06639 18.5601C7.93432 18.5287 7.81521 18.4572 7.72542 18.3554C7.63564 18.2536 7.57958 18.1265 7.56496 17.9916L7.41639 16.6508C7.39511 16.4621 7.32987 16.2811 7.22592 16.1222C7.12196 15.9632 6.98219 15.8309 6.81782 15.7358C6.65354 15.6412 6.46939 15.5864 6.28011 15.5757C6.09083 15.5651 5.90169 15.5989 5.72782 15.6744L4.49353 16.2166C4.36876 16.2714 4.23003 16.286 4.09655 16.2585C3.96308 16.231 3.84146 16.1627 3.74853 16.063C2.86087 15.1104 2.19989 13.9697 1.81496 12.7258C1.77414 12.5951 1.77519 12.4549 1.81796 12.3248C1.86074 12.1946 1.9431 12.0811 2.05353 12.0001L3.14425 11.1944C3.2978 11.0816 3.42264 10.9342 3.50869 10.7642C3.59475 10.5942 3.63958 10.4064 3.63958 10.2158C3.63958 10.0253 3.59475 9.83744 3.50869 9.66744C3.42264 9.49744 3.2978 9.35008 3.14425 9.23727L2.05353 8.43369C1.94295 8.35263 1.8605 8.23901 1.81772 8.10875C1.77494 7.97849 1.77397 7.8381 1.81496 7.70727C2.19989 6.46418 2.86145 5.32447 3.74996 4.37369C3.84297 4.27413 3.96463 4.20593 4.0981 4.17854C4.23157 4.15116 4.37026 4.16594 4.49496 4.22084L5.72353 4.76155C5.89834 4.83679 6.08834 4.87006 6.27831 4.8587C6.46828 4.84735 6.65296 4.79168 6.81756 4.69615C6.98216 4.60063 7.12212 4.4679 7.22623 4.30858C7.33033 4.14927 7.3957 3.9678 7.4171 3.77869L7.5671 2.43727C7.5819 2.30069 7.63912 2.17219 7.73073 2.06982C7.82233 1.96745 7.94372 1.89636 8.07782 1.86655C8.70639 1.72655 9.3502 1.6525 10.0092 1.64441C10.6535 1.65155 11.295 1.72655 11.9235 1.86655C12.0577 1.8964 12.1792 1.9676 12.2708 2.07011C12.3624 2.17262 12.4196 2.30128 12.4342 2.43798L12.5835 3.77941C12.6156 4.07695 12.7564 4.35219 12.9789 4.5523C13.2014 4.75241 13.49 4.8633 13.7892 4.86369C13.9557 4.86369 14.1207 4.82869 14.275 4.76084L15.5035 4.22012C15.6282 4.16522 15.7669 4.15044 15.9004 4.17783C16.0339 4.20521 16.1555 4.27341 16.2485 4.37298C17.1368 5.32382 17.7981 6.46354 18.1828 7.70655C18.2237 7.83722 18.2228 7.9774 18.1801 8.10751C18.1375 8.23762 18.0553 8.35116 17.945 8.43227L16.8557 9.23727C16.545 9.46584 16.3571 9.82941 16.3571 10.2158C16.3571 10.6016 16.545 10.9651 16.8564 11.1944L17.9464 11.9987C18.1721 12.1658 18.2678 12.4573 18.185 12.7251C17.7995 13.9677 17.1386 15.1072 16.2514 16.0587C16.1585 16.1584 16.0368 16.2267 15.9034 16.2542C15.7699 16.2817 15.6319 16.2671 15.5071 16.2123ZM11.6157 16.0708C11.786 15.537 12.1488 15.0856 12.6335 14.8044C12.9453 14.6248 13.2949 14.5208 13.6541 14.5008C14.0134 14.4808 14.3723 14.5454 14.7021 14.6894L15.6621 15.1108C16.2783 14.3965 16.7555 13.5733 17.0692 12.6837L16.22 12.0573C15.9305 11.8452 15.6951 11.5674 15.5326 11.2475C15.3702 10.9276 15.2854 10.5739 15.285 10.2151C15.285 9.48155 15.64 8.80084 16.2185 8.37512L16.22 8.37441L17.0678 7.74798C16.7538 6.85854 16.2763 6.0356 15.66 5.32155L14.7078 5.74012L14.7064 5.74084C14.4164 5.86941 14.1042 5.93512 13.7878 5.93512C13.225 5.93459 12.6822 5.72644 12.2633 5.35055C11.8445 4.97465 11.579 4.45744 11.5178 3.89798V3.89655L11.4014 2.85369C10.9419 2.7682 10.4759 2.72208 10.0085 2.71584C9.52758 2.7225 9.05734 2.76846 8.59782 2.85369L8.48139 3.89727C8.44131 4.25329 8.31829 4.59495 8.12219 4.8948C7.9261 5.19464 7.66241 5.44431 7.35231 5.62375C7.04221 5.80318 6.69434 5.90737 6.33666 5.92796C5.97898 5.94854 5.62146 5.88494 5.29282 5.74227L4.33853 5.32227C3.7222 6.03632 3.24472 6.85925 2.93067 7.74869L3.78068 8.37512C4.06934 8.58752 4.30403 8.86482 4.46577 9.18463C4.62751 9.50444 4.71179 9.85781 4.71179 10.2162C4.71179 10.5746 4.62751 10.9279 4.46577 11.2478C4.30403 11.5676 4.06934 11.8449 3.78068 12.0573L2.93067 12.6844C3.24402 13.5753 3.72128 14.3997 4.33782 15.1151L5.29853 14.6937C5.62624 14.5506 5.98295 14.4864 6.33999 14.5063C6.69702 14.5261 7.04441 14.6295 7.35425 14.808C7.66383 14.9868 7.92715 15.2358 8.12303 15.5349C8.31891 15.834 8.4419 16.1749 8.4821 16.5301V16.5337L8.59782 17.5794C9.52425 17.7616 10.4764 17.7616 11.4028 17.5794L11.5185 16.5316C11.5357 16.3735 11.5685 16.2199 11.6171 16.0708" fill="#F5F5F5"/>
</svg>
